<svg version="1.1" id="Layer_1" xmlns="http://www.w3.org/2000/svg" xmlns:xlink="http://www.w3.org/1999/xlink" x="0px" y="0px"
	 width="100%" viewBox="0 0 736 736" enable-background="new 0 0 736 736" xml:space="preserve">
<path fill="#000000" opacity="1.000000" stroke="none" 
	d="
M345.484650,180.268402 
	C382.032715,173.393463 416.363647,178.658081 448.903137,195.742126 
	C449.640228,196.129120 450.335144,196.596481 451.072510,196.982895 
	C459.590576,201.446777 463.758057,207.679123 463.540771,218.092468 
	C463.166168,236.046768 464.538757,254.035538 465.077759,272.012878 
	C465.163696,274.878632 465.825195,278.143616 462.354065,279.982330 
	C459.450714,278.871765 459.999023,276.245148 459.765991,274.073395 
	C456.053314,239.472763 440.768585,211.428986 410.363281,193.890945 
	C383.828613,178.585541 355.760132,179.147827 328.710938,193.467133 
	C314.658478,200.906204 308.654816,214.250870 307.320251,229.767181 
	C304.827026,258.754639 319.037903,279.938934 338.885925,298.883087 
	C347.229401,306.846619 355.363129,310.658264 365.982635,303.968750 
	C422.526245,289.248901 473.151825,299.420166 516.504272,339.886200 
	C522.632568,345.606445 525.855347,352.686279 525.383911,361.309143 
	C525.065735,367.128448 525.232422,372.973389 524.963257,378.796753 
	C524.875732,380.690125 524.786621,383.177887 522.265808,383.588562 
	C519.848389,383.982422 518.826965,381.844025 517.971985,380.063446 
	C512.315857,368.284515 505.248352,357.441895 496.909149,347.380615 
	C481.713867,329.047394 461.806335,318.584137 439.157074,312.865112 
	C415.711029,306.944916 392.148407,305.818359 368.594940,312.446899 
	C366.709625,312.977448 364.687469,313.326721 362.854889,314.995270 
	C364.386414,317.141846 366.893982,317.758728 368.986969,318.852539 
	C392.772247,331.282837 417.839813,340.995911 441.754395,353.159607 
	C461.474304,363.189728 480.274902,374.466583 494.609222,391.832489 
	C506.853516,406.666351 513.135559,423.851227 515.428711,442.860291 
	C518.478455,468.141418 509.463928,490.324371 498.634857,512.116455 
	C495.747375,517.927124 492.340240,523.481506 489.114502,529.120789 
	C488.408966,530.354248 487.883942,531.940979 485.681580,531.891479 
	C484.171722,529.644836 486.006409,527.894714 486.830658,526.138367 
	C494.863922,509.020844 499.421692,490.995422 499.541748,472.128723 
	C499.708435,445.933594 488.271545,424.675903 470.085999,406.532898 
	C455.790070,392.270386 438.534729,382.635986 420.307159,374.604980 
	C399.275848,365.338684 378.090942,356.420532 356.961090,347.378418 
	C348.352844,343.694672 340.246552,339.105835 332.441254,333.964172 
	C330.893402,332.944519 329.494934,331.781464 327.500610,333.183960 
	C319.060699,339.119263 311.290985,345.772369 304.213104,353.987549 
	C312.394318,359.532440 320.864105,363.376648 329.493896,366.746002 
	C352.143005,375.588989 375.114380,383.648834 396.646362,395.125488 
	C411.251190,402.909882 424.910187,411.938141 437.169342,423.237854 
	C471.895233,455.245941 465.560822,508.848511 432.931366,536.410828 
	C410.452881,555.398560 384.181183,564.543884 355.107483,566.385498 
	C322.560181,568.447083 292.664520,560.188354 265.615723,542.263733 
	C237.780807,523.818115 221.934982,497.281128 216.992035,464.581360 
	C212.291931,433.488190 218.390900,404.280579 235.521500,377.663483 
	C240.056427,370.617279 240.202469,370.711273 243.796921,370.128540 
	C245.165649,372.405487 243.703949,374.349060 242.852737,376.206970 
	C232.338577,399.155548 228.501617,423.439667 230.542938,448.309357 
	C235.478256,508.437103 277.121460,550.881104 331.868408,559.837402 
	C352.657288,563.238403 373.114990,562.535522 392.484802,553.368591 
	C416.124634,542.180908 430.622498,523.247131 435.263489,497.777496 
	C438.084869,482.293701 432.330994,468.222809 422.434326,456.038605 
	C411.916016,443.089050 398.151703,434.349091 383.722656,426.548920 
	C370.804779,419.565643 357.236664,414.035309 343.472290,408.946533 
	C323.110535,401.418671 303.630859,392.075378 285.007996,379.472870 
	C266.643402,414.148956 265.494476,448.717133 282.849304,483.994904 
	C279.295166,483.902863 278.563538,481.574799 277.476257,479.873840 
	C266.519440,462.732849 263.261688,443.837646 265.210083,423.895996 
	C266.698151,408.665833 271.133240,394.203888 277.915100,380.521820 
	C279.711304,376.898102 278.841858,375.061554 275.845093,372.745270 
	C262.036011,362.071899 249.436005,350.275696 241.916702,334.041321 
	C234.547455,318.130890 233.020538,301.309662 234.970337,284.225403 
	C237.378799,263.122314 244.345551,243.406525 255.317734,225.178757 
	C256.862335,222.612747 258.047699,219.535873 262.388275,218.081314 
	C261.021484,221.900040 259.967407,224.952347 258.840057,227.977325 
	C251.517410,247.625717 247.999771,267.785980 251.253250,288.711761 
	C254.151550,307.353058 264.560730,321.847290 277.674164,334.652710 
	C282.919983,339.775299 288.617859,344.408813 294.860870,348.318634 
	C296.299988,349.219971 297.732971,350.306702 299.260834,348.539581 
	C306.122559,340.603119 314.061188,333.787628 322.396149,326.809753 
	C316.566650,321.531311 311.063965,316.503967 306.071930,310.949249 
	C282.868988,285.130981 277.745636,248.266357 293.494781,217.898758 
	C304.397339,196.876404 322.609528,185.636520 345.484650,180.268402 
z"/>
</svg>